Coordinates
version=1
nRows=16
nColumns=22
inDegrees=yes

Units are S.I. units (second, meters, Newtons, ...)
If the header above contains a line with 'inDegrees', this indicates whether rotational values are in degrees (yes) or radians (no).

endheader
time	pelvis_tilt	pelvis_list	pelvis_rotation	pelvis_tx	pelvis_ty	pelvis_tz	hip_flexion_r	hip_adduction_r	hip_rotation_r	knee_angle_r	ankle_angle_r	subtalar_angle_r	hip_flexion_l	hip_adduction_l	hip_rotation_l	knee_angle_l	ankle_angle_l	subtalar_angle_l	lumbar_extension	lumbar_bending	lumbar_rotation
      1.27000000	     -3.72365305	     -2.05436372	     -5.43115762	     -1.18119969	      0.95197167	      0.37489242	     12.49605833	      2.78648104	      0.33803739	    -23.89756827	     15.16016708	     -1.89334845	      8.59100264	     -2.47675700	    -10.58740656	    -21.58079285	     14.21348905	     -6.85529514	     -4.49640285	      1.68820888	      0.02935381
      1.28000000	     -3.72082817	     -2.03645776	     -5.42748644	     -1.18040420	      0.95190446	      0.37586239	     12.44386892	      2.83365112	      0.36281732	    -23.93047372	     15.30743349	     -1.97068163	      8.51256277	     -2.51452015	    -10.58767358	    -21.54989881	     14.24434333	     -6.80735881	     -4.50829614	      1.69633365	     -0.07048158
      1.29000000	     -3.71554517	     -2.01879565	     -5.42892244	     -1.17953102	      0.95183452	      0.37689144	     12.37592328	      2.88439828	      0.40043303	    -23.95027609	     15.46183402	     -2.04523468	      8.42451187	     -2.55562841	    -10.58975635	    -21.51858981	     14.28077343	     -6.75695327	     -4.52102376	      1.70406925	     -0.17432226
      1.30000000	     -3.70641368	     -2.00107246	     -5.44349842	     -1.17858800	      0.95176602	      0.37798410	     12.29152824	      2.93929829	      0.45290282	    -23.95612809	     15.62276996	     -2.11946232	      8.32322906	     -2.59905156	    -10.59744101	    -21.48334149	     14.32273600	     -6.69909595	     -4.53610195	      1.71547070	     -0.28521906
      1.31000000	     -3.64942024	     -1.98630180	     -5.47552684	     -1.17754996	      0.95176749	      0.37914277	     12.14337417	      2.99563241	      0.51782504	    -23.95247507	     15.76538957	     -2.25178289	      8.14870917	     -2.64507485	    -10.62628373	    -21.42719133	     14.39246275	     -6.55864289	     -4.60505309	      1.72821385	     -0.37427655
      1.32000000	     -3.67755344	     -1.96502282	     -5.50798995	     -1.17649287	      0.95163568	      0.38034727	     12.06617966	      3.05497450	      0.59765485	    -23.91332922	     15.92643296	     -2.28238727	      8.08776642	     -2.69759850	    -10.64567895	    -21.41228705	     14.42276751	     -6.52487173	     -4.57271087	      1.74540751	     -0.49204590
      1.33000000	     -3.65550402	     -1.96017866	     -5.57568327	     -1.17538901	      0.95156881	      0.38167207	     11.93327157	      3.13564261	      0.69891223	    -23.87877813	     16.09348612	     -2.33260243	      7.95814235	     -2.77397366	    -10.70109596	    -21.39228446	     14.50982316	     -6.40020792	     -4.60753470	      1.77359532	     -0.56941455
      1.34000000	     -3.68631291	     -1.94574099	     -5.63831018	     -1.17424386	      0.95142182	      0.38302517	     11.83232187	      3.20751315	      0.79218628	    -23.80236895	     16.26499520	     -2.34583122	      7.90668096	     -2.84743829	    -10.72803189	    -21.41355982	     14.55219837	     -6.34450096	     -4.57804099	      1.80134753	     -0.66989420
      1.35000000	     -3.67663249	     -1.96804411	     -5.74166294	     -1.17304987	      0.95132616	      0.38452507	     11.68142349	      3.32808249	      0.92189990	    -23.72617390	     16.41225390	     -2.34504184	      7.80367055	     -2.97409464	    -10.80669135	    -21.44792024	     14.67510643	     -6.17204242	     -4.60612010	      1.86464144	     -0.73028951
      1.36000000	     -3.69555350	     -1.98634086	     -5.83662254	     -1.17183272	      0.95116850	      0.38606242	     11.54351352	      3.44598613	      1.04427588	    -23.62315316	     16.59857982	     -2.34034598	      7.76732112	     -3.10085600	    -10.82821740	    -21.54811892	     14.74907498	     -6.06924645	     -4.60433021	      1.92694389	     -0.79572729
      1.37000000	     -3.68359330	     -2.04209378	     -5.95932085	     -1.17053484	      0.95105532	      0.38772574	     11.33998163	      3.61327159	      1.21138475	    -23.47826690	     16.70769833	     -2.31019924	      7.71208099	     -3.28579540	    -10.90315805	    -21.70182596	     14.91388495	     -5.81697410	     -4.64339160	      2.02715404	     -0.84360277
      1.38000000	     -3.67811032	     -2.12063386	     -6.08727235	     -1.16923923	      0.95089521	      0.38947435	     11.14326196	      3.81261028	      1.38908918	    -23.34329458	     16.85875884	     -2.29268245	      7.70714630	     -3.50257247	    -10.92077268	    -21.94063960	     15.05583853	     -5.58301357	     -4.68817804	      2.15122106	     -0.88180105
      1.39000000	     -3.67714611	     -2.24026566	     -6.22717953	     -1.16787056	      0.95069444	      0.39130352	     10.92014593	      4.06128437	      1.57411159	    -23.17178360	     17.00337478	     -2.28333599	      7.75498692	     -3.77676436	    -10.92281807	    -22.28734076	     15.21801974	     -5.43431027	     -4.72949055	      2.32502872	     -0.87623021
      1.40000000	     -3.64617069	     -2.40018895	     -6.37934253	     -1.16651718	      0.95049636	      0.39325616	     10.66352094	      4.36510011	      1.80874033	    -23.01150993	     17.10347689	     -2.27675510	      7.83896582	     -4.11062871	    -10.90116451	    -22.77025109	     15.41460188	     -5.14233174	     -4.82826920	      2.53221194	     -0.87273757
      1.41000000	     -3.61393745	     -2.59912222	     -6.53740930	     -1.16509195	      0.95025225	      0.39526534	     10.37807684	      4.71276229	      2.04945848	    -22.82332416	     17.21634776	     -2.27433505	      7.99234648	     -4.49817717	    -10.84652365	    -23.39909436	     15.62266956	     -4.86158749	     -4.93247428	      2.78534880	     -0.83613227
      1.42000000	     -3.57956208	     -2.82277321	     -6.69930846	     -1.16362366	      0.94995590	      0.39732729	     10.07596365	      5.08729569	      2.29464318	    -22.62495922	     17.34549149	     -2.28431855	      8.22995014	     -4.92717272	    -10.75518419	    -24.19642132	     15.84559451	     -4.40279588	     -5.04469102	      3.06743810	     -0.77512191
